<svg width="448" height="447" xmlns="http://www.w3.org/2000/svg" xmlns:xlink="http://www.w3.org/1999/xlink" xml:space="preserve" overflow="hidden"><g transform="translate(-1373 -980)"><path d="M1466.03 1014.02C1459.18 1007.17 1448.07 1007.17 1441.22 1014.02 1434.37 1020.87 1434.37 1031.98 1441.22 1038.83 1448.07 1045.68 1459.18 1045.68 1466.03 1038.83 1472.88 1031.98 1472.88 1020.87 1466.03 1014.02ZM1532.7 997.88 1532.42 999.817C1525.98 1033.08 1509.88 1064.85 1484.11 1090.62 1458.35 1116.38 1426.58 1132.48 1393.31 1138.92L1391.38 1139.2 1383.68 1118.04C1372.78 1081.19 1370.96 1042.22 1378.23 1004.66L1382.14 988.643 1398.16 984.733C1435.71 977.461 1474.69 979.279 1511.54 990.187ZM1820.76 1256.41 1650.29 1426.87 1650.29 1285.15 1629.36 1287.92C1562.78 1292.69 1494.58 1269.63 1443.68 1218.72 1436.41 1211.45 1429.7 1203.82 1423.57 1195.9L1416.73 1185.83 1424.37 1183.96C1459.49 1173.57 1492.58 1154.51 1520.3 1126.8 1548.01 1099.08 1567.07 1065.99 1577.46 1030.87L1579.32 1023.23 1589.4 1030.07C1597.32 1036.2 1604.95 1042.91 1612.22 1050.18 1663.12 1101.09 1686.19 1169.29 1681.42 1235.87L1678.7 1256.41Z" fill-rule="evenodd"/></g></svg>