<svg width="602" height="601" xmlns="http://www.w3.org/2000/svg" xmlns:xlink="http://www.w3.org/1999/xlink" xml:space="preserve" overflow="hidden"><defs><clipPath id="clip0"><rect x="211" y="1581" width="602" height="601"/></clipPath></defs><g clip-path="url(#clip0)" transform="translate(-211 -1581)"><path d="M514.114 1724.58 512.247 1732.22C501.844 1767.3 482.772 1800.38 455.03 1828.07 427.289 1855.77 394.162 1874.81 359.015 1885.19L351.365 1887.06 358.21 1897.12C364.351 1905.04 371.061 1912.66 378.34 1919.93 429.293 1970.8 497.558 1993.84 564.2 1989.08L585.148 1986.31 585.149 2127.93 755.774 1957.59 613.586 1957.59 616.302 1937.06C621.079 1870.53 597.991 1802.38 547.039 1751.51 539.76 1744.24 532.128 1737.54 524.198 1731.41ZM388.297 1710.24C392.791 1710.24 397.286 1711.95 400.714 1715.37 407.572 1722.22 407.572 1733.32 400.714 1740.17 393.857 1747.01 382.738 1747.01 375.88 1740.17 369.022 1733.32 369.022 1722.22 375.88 1715.37 379.309 1711.95 383.803 1710.24 388.297 1710.24ZM389.785 1682.02C370.722 1681.11 351.571 1682.47 332.774 1686.11L316.744 1690.02 312.83 1706.02C305.551 1743.55 307.371 1782.5 318.289 1819.32L325.991 1840.47 327.928 1840.19C361.228 1833.75 393.025 1817.66 418.814 1791.92 444.602 1766.17 460.72 1734.42 467.167 1701.18L467.447 1699.25 446.266 1691.56C427.822 1686.11 408.848 1682.93 389.785 1682.02ZM360.904 1581 663.096 1581C745.886 1581 813 1648 813 1730.65L813 2032.35C813 2115 745.886 2182 663.096 2182L360.904 2182 360.9 2182 211 2182 211 2032.35 211 1865.53 211 1730.65C211 1648 278.114 1581 360.904 1581Z" fill="#393357" fill-rule="evenodd"/></g></svg>